<svg width="26" height="25" viewBox="0 0 26 25" fill="none" xmlns="http://www.w3.org/2000/svg">
<path d="M13 22.707C13.1432 22.707 13.2793 22.7035 13.4082 22.6963C13.5443 22.6891 13.6875 22.6784 13.8379 22.6641L14.4502 23.835C14.5146 23.9567 14.6006 24.0462 14.708 24.1035C14.8226 24.1608 14.9551 24.1823 15.1055 24.168C15.2344 24.1393 15.3418 24.0785 15.4277 23.9854C15.5208 23.8923 15.5781 23.7741 15.5996 23.6309L15.7822 22.3311C16.0472 22.2594 16.3122 22.1735 16.5771 22.0732C16.8421 21.973 17.0999 21.8691 17.3506 21.7617L18.3174 22.6318C18.4176 22.7249 18.5322 22.7786 18.6611 22.793C18.79 22.8145 18.9189 22.7894 19.0479 22.7178C19.2913 22.5745 19.3844 22.349 19.3271 22.041L19.0586 20.7627C19.2806 20.6051 19.499 20.4368 19.7139 20.2578C19.9359 20.0788 20.1471 19.8926 20.3477 19.6992L21.54 20.1934C21.6761 20.2507 21.805 20.265 21.9268 20.2363C22.0485 20.2077 22.1631 20.1325 22.2705 20.0107C22.3564 19.9105 22.403 19.7959 22.4102 19.667C22.4245 19.5381 22.3923 19.4128 22.3135 19.291L21.6152 18.1738C21.7799 17.9518 21.9268 17.7191 22.0557 17.4756C22.1917 17.2321 22.3206 16.9814 22.4424 16.7236L23.7637 16.7881C23.8997 16.7952 24.0215 16.763 24.1289 16.6914C24.2435 16.6198 24.3223 16.5195 24.3652 16.3906C24.4082 16.2546 24.4082 16.1257 24.3652 16.0039C24.3294 15.8822 24.2578 15.7783 24.1504 15.6924L23.1191 14.876C23.1908 14.611 23.2516 14.3424 23.3018 14.0703C23.359 13.791 23.3984 13.5081 23.4199 13.2217L24.6553 12.8242C24.7913 12.7812 24.8988 12.7096 24.9775 12.6094C25.0563 12.5091 25.0957 12.3874 25.0957 12.2441C25.0957 12.1009 25.0563 11.9792 24.9775 11.8789C24.8988 11.7786 24.7913 11.7035 24.6553 11.6533L23.4199 11.2666C23.3984 10.973 23.359 10.6901 23.3018 10.418C23.2516 10.1458 23.1908 9.87728 23.1191 9.6123L24.1504 8.7959C24.2578 8.70996 24.3294 8.6097 24.3652 8.49512C24.4082 8.37337 24.4082 8.24447 24.3652 8.1084C24.3223 7.97949 24.2435 7.87923 24.1289 7.80762C24.0215 7.736 23.8997 7.70378 23.7637 7.71094L22.4424 7.75391C22.3206 7.49609 22.1917 7.24902 22.0557 7.0127C21.9268 6.76921 21.7799 6.53288 21.6152 6.30371L22.3135 5.18652C22.3851 5.07194 22.4173 4.95378 22.4102 4.83203C22.403 4.70312 22.3564 4.58854 22.2705 4.48828C22.1631 4.36654 22.0485 4.29134 21.9268 4.2627C21.805 4.23405 21.6761 4.24837 21.54 4.30566L20.3477 4.78906C20.1471 4.5957 19.9359 4.40951 19.7139 4.23047C19.499 4.05143 19.2806 3.88314 19.0586 3.72559L19.3271 2.45801C19.363 2.30762 19.3558 2.17513 19.3057 2.06055C19.2555 1.9388 19.1696 1.8457 19.0479 1.78125C18.9189 1.70964 18.79 1.68099 18.6611 1.69531C18.5394 1.70964 18.4248 1.76693 18.3174 1.86719L17.3506 2.72656C17.0999 2.61198 16.8421 2.50814 16.5771 2.41504C16.3122 2.32194 16.0472 2.236 15.7822 2.15723L15.5996 0.868164C15.5781 0.724935 15.5208 0.606771 15.4277 0.513672C15.3418 0.420573 15.2308 0.359701 15.0947 0.331055C14.9515 0.316732 14.8226 0.338216 14.708 0.395508C14.5934 0.445638 14.5075 0.531576 14.4502 0.65332L13.8379 1.82422C13.6875 1.81706 13.5443 1.8099 13.4082 1.80273C13.2793 1.79557 13.1432 1.79199 13 1.79199C12.8568 1.79199 12.7171 1.79557 12.5811 1.80273C12.445 1.8099 12.3053 1.81706 12.1621 1.82422L11.5391 0.65332C11.4818 0.531576 11.3958 0.445638 11.2812 0.395508C11.1667 0.338216 11.0378 0.316732 10.8945 0.331055C10.7585 0.359701 10.6439 0.420573 10.5508 0.513672C10.4648 0.606771 10.4147 0.724935 10.4004 0.868164L10.207 2.15723C9.94206 2.236 9.67708 2.32194 9.41211 2.41504C9.1543 2.50814 8.89648 2.61198 8.63867 2.72656L7.67188 1.86719C7.57161 1.76693 7.45703 1.70964 7.32812 1.69531C7.19922 1.68099 7.07031 1.70964 6.94141 1.78125C6.81966 1.8457 6.73372 1.9388 6.68359 2.06055C6.63346 2.17513 6.6263 2.30762 6.66211 2.45801L6.93066 3.72559C6.70866 3.88314 6.48665 4.05143 6.26465 4.23047C6.0498 4.40951 5.84212 4.5957 5.6416 4.78906L4.44922 4.30566C4.31315 4.24837 4.18424 4.23405 4.0625 4.2627C3.94076 4.29134 3.82975 4.36654 3.72949 4.48828C3.63639 4.58854 3.58626 4.70312 3.5791 4.83203C3.57194 4.95378 3.60417 5.07194 3.67578 5.18652L4.37402 6.30371C4.21647 6.53288 4.06966 6.76921 3.93359 7.0127C3.79753 7.24902 3.66862 7.49609 3.54688 7.75391L2.23633 7.71094C2.0931 7.70378 1.96777 7.736 1.86035 7.80762C1.75293 7.87923 1.67415 7.97949 1.62402 8.1084C1.58105 8.24447 1.57747 8.37337 1.61328 8.49512C1.65625 8.6097 1.73145 8.70996 1.83887 8.7959L2.87012 9.6123C2.7985 9.87728 2.73763 10.1458 2.6875 10.418C2.63737 10.6901 2.60514 10.9694 2.59082 11.2559L1.33398 11.6533C1.04753 11.7536 0.904297 11.9505 0.904297 12.2441C0.904297 12.5378 1.04753 12.7311 1.33398 12.8242L2.59082 13.2217C2.60514 13.5081 2.63737 13.791 2.6875 14.0703C2.73763 14.3424 2.7985 14.611 2.87012 14.876L1.83887 15.6924C1.73145 15.7783 1.65983 15.8822 1.62402 16.0039C1.58822 16.1257 1.58822 16.2546 1.62402 16.3906C1.67415 16.5195 1.75293 16.6198 1.86035 16.6914C1.96777 16.763 2.0931 16.7952 2.23633 16.7881L3.54688 16.7236C3.66862 16.9814 3.79753 17.2321 3.93359 17.4756C4.06966 17.7191 4.21647 17.9518 4.37402 18.1738L3.67578 19.291C3.60417 19.4128 3.57194 19.5381 3.5791 19.667C3.58626 19.7959 3.63639 19.9105 3.72949 20.0107C3.82975 20.1325 3.94076 20.2077 4.0625 20.2363C4.18424 20.265 4.31315 20.2507 4.44922 20.1934L5.6416 19.6992C5.84212 19.8926 6.0498 20.0788 6.26465 20.2578C6.48665 20.4368 6.70866 20.6051 6.93066 20.7627L6.66211 22.041C6.63346 22.1842 6.64062 22.3132 6.68359 22.4277C6.73372 22.5495 6.81966 22.6462 6.94141 22.7178C7.07747 22.7894 7.20638 22.8145 7.32812 22.793C7.45703 22.7786 7.57161 22.7249 7.67188 22.6318L8.63867 21.7617C8.89648 21.8691 9.1543 21.973 9.41211 22.0732C9.67708 22.1735 9.94206 22.2594 10.207 22.3311L10.4004 23.6309C10.4147 23.7741 10.4648 23.8923 10.5508 23.9854C10.6439 24.0785 10.7585 24.1393 10.8945 24.168C11.0378 24.1823 11.1631 24.1608 11.2705 24.1035C11.3851 24.0462 11.4746 23.9567 11.5391 23.835L12.1621 22.6641C12.3053 22.6784 12.445 22.6891 12.5811 22.6963C12.7171 22.7035 12.8568 22.707 13 22.707ZM13 21.085C11.7682 21.085 10.6224 20.8558 9.5625 20.3975C8.50977 19.9463 7.58594 19.3161 6.79102 18.5068C6.00326 17.6976 5.38737 16.7594 4.94336 15.6924C4.49935 14.6253 4.27734 13.4795 4.27734 12.2549C4.27734 11.0231 4.49935 9.8737 4.94336 8.80664C5.38737 7.73958 6.00326 6.80143 6.79102 5.99219C7.58594 5.18294 8.50977 4.55273 9.5625 4.10156C10.6224 3.64323 11.7682 3.41406 13 3.41406C14.2318 3.41406 15.374 3.64323 16.4268 4.10156C17.4867 4.55273 18.4105 5.18294 19.1982 5.99219C19.9932 6.80143 20.6126 7.73958 21.0566 8.80664C21.5007 9.8737 21.7227 11.0231 21.7227 12.2549C21.7227 13.4795 21.5007 14.6253 21.0566 15.6924C20.6126 16.7594 19.9932 17.6976 19.1982 18.5068C18.4105 19.3161 17.4867 19.9463 16.4268 20.3975C15.374 20.8558 14.2318 21.085 13 21.085ZM11.1201 10.4824L12.3125 9.73047L8.6709 3.5L7.43555 4.19824L11.1201 10.4824ZM15.4922 12.9316H22.7432L22.7324 11.5459H15.4922V12.9316ZM12.3232 14.79L11.1416 14.0166L7.32812 20.2578L8.55273 20.9775L12.3232 14.79ZM12.9785 15.0801C13.4941 15.0801 13.9632 14.9548 14.3857 14.7041C14.8154 14.4463 15.1556 14.1061 15.4062 13.6836C15.6569 13.2539 15.7822 12.7812 15.7822 12.2656C15.7822 11.7428 15.6569 11.2702 15.4062 10.8477C15.1556 10.418 14.8154 10.0778 14.3857 9.82715C13.9632 9.5765 13.4941 9.45117 12.9785 9.45117C12.4557 9.45117 11.9795 9.5765 11.5498 9.82715C11.1273 10.0778 10.7907 10.418 10.54 10.8477C10.2894 11.2702 10.1641 11.7428 10.1641 12.2656C10.1641 12.7812 10.2894 13.2539 10.54 13.6836C10.7907 14.1061 11.1273 14.4463 11.5498 14.7041C11.9795 14.9548 12.4557 15.0801 12.9785 15.0801ZM12.9785 13.5654C12.6061 13.5654 12.2946 13.4401 12.0439 13.1895C11.8005 12.9388 11.6787 12.6309 11.6787 12.2656C11.6787 11.9004 11.8005 11.5924 12.0439 11.3418C12.2946 11.0911 12.6061 10.9658 12.9785 10.9658C13.3438 10.9658 13.6481 11.0911 13.8916 11.3418C14.1423 11.5924 14.2676 11.9004 14.2676 12.2656C14.2676 12.6309 14.1423 12.9388 13.8916 13.1895C13.6481 13.4401 13.3438 13.5654 12.9785 13.5654Z" fill="white"/>
</svg>
