<svg width="17" height="17" viewBox="0 0 17 17" fill="none" xmlns="http://www.w3.org/2000/svg">
<path d="M8.36719 16.3281C9.45573 16.3281 10.4792 16.1198 11.4375 15.7031C12.401 15.2865 13.25 14.7109 13.9844 13.9766C14.7188 13.2422 15.2943 12.3958 15.7109 11.4375C16.1276 10.474 16.3359 9.44792 16.3359 8.35938C16.3359 7.27083 16.1276 6.2474 15.7109 5.28906C15.2943 4.32552 14.7188 3.47656 13.9844 2.74219C13.25 2.00781 12.401 1.43229 11.4375 1.01562C10.474 0.598958 9.44792 0.390625 8.35938 0.390625C7.27083 0.390625 6.24479 0.598958 5.28125 1.01562C4.32292 1.43229 3.47656 2.00781 2.74219 2.74219C2.01302 3.47656 1.4401 4.32552 1.02344 5.28906C0.606771 6.2474 0.398438 7.27083 0.398438 8.35938C0.398438 9.44792 0.606771 10.474 1.02344 11.4375C1.4401 12.3958 2.01562 13.2422 2.75 13.9766C3.48438 14.7109 4.33073 15.2865 5.28906 15.7031C6.2526 16.1198 7.27865 16.3281 8.36719 16.3281ZM5.74219 11.6406C5.5651 11.6406 5.41406 11.5781 5.28906 11.4531C5.16406 11.3229 5.10156 11.1693 5.10156 10.9922C5.10156 10.8151 5.16406 10.6641 5.28906 10.5391L7.46094 8.36719L5.28906 6.20312C5.16406 6.07292 5.10156 5.92188 5.10156 5.75C5.10156 5.56771 5.16406 5.41667 5.28906 5.29688C5.41406 5.17188 5.5651 5.10938 5.74219 5.10938C5.91406 5.10938 6.0651 5.16927 6.19531 5.28906L8.375 7.46094L10.5703 5.28125C10.6953 5.15625 10.8438 5.09375 11.0156 5.09375C11.1927 5.09375 11.3438 5.15625 11.4688 5.28125C11.5938 5.40625 11.6562 5.55729 11.6562 5.73438C11.6562 5.91146 11.5938 6.0651 11.4688 6.19531L9.28906 8.36719L11.4609 10.5312C11.5859 10.6458 11.6484 10.7995 11.6484 10.9922C11.6484 11.1693 11.5859 11.3229 11.4609 11.4531C11.3359 11.5781 11.1823 11.6406 11 11.6406C10.8125 11.6406 10.6589 11.5781 10.5391 11.4531L8.375 9.28125L6.21875 11.4531C6.08854 11.5781 5.92969 11.6406 5.74219 11.6406Z" fill="#8E8E92"/>
</svg>
