<svg width="28" height="28" viewBox="0 0 28 28" fill="none" xmlns="http://www.w3.org/2000/svg">
<path fill-rule="evenodd" clip-rule="evenodd" d="M8.75298 2.83499L8.79999 2.83499H9.99999C10.6434 2.83499 11.165 3.35658 11.165 3.99999C11.165 4.6434 10.6434 5.16499 9.99999 5.16499H8.79999C7.94069 5.16499 7.36628 5.1659 6.92447 5.202C6.49626 5.23698 6.29618 5.29913 6.16692 5.365C5.82164 5.54092 5.54092 5.82164 5.365 6.16692C5.29913 6.29618 5.23698 6.49626 5.202 6.92447C5.1659 7.36628 5.16499 7.94069 5.16499 8.79999V9.99999C5.16499 10.6434 4.6434 11.165 3.99999 11.165C3.35658 11.165 2.83499 10.6434 2.83499 9.99999V8.79999L2.83499 8.75298C2.83498 7.95292 2.83496 7.28273 2.87973 6.73473C2.92649 6.16243 3.02783 5.62159 3.28895 5.10912C3.68826 4.32543 4.32543 3.68826 5.10912 3.28895C5.62159 3.02783 6.16243 2.92649 6.73473 2.87973C7.28273 2.83496 7.95292 2.83498 8.75298 2.83499ZM8.75298 25.165H8.79999H9.99999C10.6434 25.165 11.165 24.6434 11.165 24C11.165 23.3566 10.6434 22.835 9.99999 22.835H8.79999C7.94069 22.835 7.36628 22.8341 6.92447 22.798C6.49626 22.763 6.29618 22.7009 6.16692 22.635C5.82164 22.4591 5.54092 22.1783 5.365 21.8331C5.29913 21.7038 5.23698 21.5037 5.202 21.0755C5.1659 20.6337 5.16499 20.0593 5.16499 19.2V18C5.16499 17.3566 4.6434 16.835 3.99999 16.835C3.35658 16.835 2.83499 17.3566 2.83499 18V19.2L2.83499 19.247C2.83498 20.0471 2.83496 20.7173 2.87973 21.2653C2.92649 21.8376 3.02783 22.3784 3.28895 22.8909C3.68826 23.6746 4.32543 24.3117 5.10912 24.711C5.62159 24.9722 6.16243 25.0735 6.73473 25.1203C7.28273 25.165 7.95292 25.165 8.75298 25.165ZM19.2 2.83499L19.247 2.83499C20.0471 2.83498 20.7173 2.83496 21.2653 2.87973C21.8376 2.92649 22.3784 3.02783 22.8909 3.28895C23.6746 3.68826 24.3117 4.32543 24.711 5.10912C24.9722 5.62159 25.0735 6.16243 25.1203 6.73473C25.165 7.28273 25.165 7.95292 25.165 8.75298V8.79999V9.99999C25.165 10.6434 24.6434 11.165 24 11.165C23.3566 11.165 22.835 10.6434 22.835 9.99999V8.79999C22.835 7.94069 22.8341 7.36628 22.798 6.92447C22.763 6.49626 22.7009 6.29618 22.635 6.16692C22.4591 5.82164 22.1783 5.54092 21.8331 5.365C21.7038 5.29913 21.5037 5.23698 21.0755 5.202C20.6337 5.1659 20.0593 5.16499 19.2 5.16499H18C17.3566 5.16499 16.835 4.6434 16.835 3.99999C16.835 3.35658 17.3566 2.83499 18 2.83499H19.2ZM19.247 25.165H19.2H18C17.3566 25.165 16.835 24.6434 16.835 24C16.835 23.3566 17.3566 22.835 18 22.835H19.2C20.0593 22.835 20.6337 22.8341 21.0755 22.798C21.5037 22.763 21.7038 22.7009 21.8331 22.635C22.1783 22.4591 22.4591 22.1783 22.635 21.8331C22.7009 21.7038 22.763 21.5037 22.798 21.0755C22.8341 20.6337 22.835 20.0593 22.835 19.2V18C22.835 17.3566 23.3566 16.835 24 16.835C24.6434 16.835 25.165 17.3566 25.165 18V19.2V19.247C25.165 20.0471 25.165 20.7173 25.1203 21.2653C25.0735 21.8376 24.9722 22.3784 24.711 22.8909C24.3117 23.6746 23.6746 24.3117 22.8909 24.711C22.3784 24.9722 21.8376 25.0735 21.2653 25.1203C20.7173 25.165 20.0471 25.165 19.247 25.165ZM8.00038 12.8354C7.35697 12.8354 6.83538 13.357 6.83538 14.0004C6.83538 14.6438 7.35697 15.1654 8.00038 15.1654H20.0004C20.6438 15.1654 21.1654 14.6438 21.1654 14.0004C21.1654 13.357 20.6438 12.8354 20.0004 12.8354H8.00038Z" fill="white"/>
</svg>
