<svg width="72" height="72" viewBox="0 0 72 72" fill="none" xmlns="http://www.w3.org/2000/svg">
<g filter="url(#filter0_b_71_6395)">
<path d="M34.125 54.1719H37.875C38.8125 54.1719 39.5156 53.9323 39.9844 53.4531C40.4635 52.974 40.7031 52.2448 40.7031 51.2656V34.6719C40.7031 33.849 40.7917 33.1354 40.9688 32.5312C41.1458 31.9271 41.3854 31.3958 41.6875 30.9375L42.7031 29.4375C43.0573 28.8854 43.3438 28.3333 43.5625 27.7812C43.7917 27.2292 43.9062 26.6198 43.9062 25.9531V24.6719H28.0938V25.9531C28.0938 26.6198 28.2031 27.2292 28.4219 27.7812C28.6406 28.3333 28.9323 28.8854 29.2969 29.4375L30.2969 30.9375C30.599 31.3958 30.8385 31.9271 31.0156 32.5312C31.1927 33.1354 31.2812 33.849 31.2812 34.6719V51.2656C31.2812 52.2448 31.5208 52.974 32 53.4531C32.4792 53.9323 33.1875 54.1719 34.125 54.1719ZM36 42.1562C35.3646 42.1562 34.8542 41.9479 34.4688 41.5312C34.0833 41.1042 33.8906 40.5625 33.8906 39.9062V35.625C33.8906 34.9688 34.0833 34.4375 34.4688 34.0312C34.8542 33.625 35.3646 33.4271 36 33.4375C36.6354 33.4479 37.1458 33.6562 37.5312 34.0625C37.9167 34.4583 38.1094 34.9792 38.1094 35.625V39.9062C38.1094 40.5625 37.9167 41.1042 37.5312 41.5312C37.1458 41.9479 36.6354 42.1562 36 42.1562ZM36 41.0469C36.3438 41.0469 36.6406 40.9219 36.8906 40.6719C37.151 40.4219 37.2812 40.1198 37.2812 39.7656C37.2812 39.4219 37.151 39.1198 36.8906 38.8594C36.6406 38.599 36.3438 38.4688 36 38.4688C35.6562 38.4688 35.3542 38.599 35.0938 38.8594C34.8333 39.1198 34.7031 39.4219 34.7031 39.7656C34.7031 40.1198 34.8333 40.4219 35.0938 40.6719C35.3542 40.9219 35.6562 41.0469 36 41.0469ZM28.0938 22.8438H43.9062V22.0938C43.9062 21.1042 43.6667 20.375 43.1875 19.9062C42.7083 19.4271 42 19.1875 41.0625 19.1875H30.9375C30 19.1875 29.2917 19.4271 28.8125 19.9062C28.3333 20.375 28.0938 21.1042 28.0938 22.0938V22.8438Z" fill="black"/>
</g>
<defs>
<filter id="filter0_b_71_6395" x="-50" y="-50" width="172" height="172" filterUnits="userSpaceOnUse" color-interpolation-filters="sRGB">
<feFlood flood-opacity="0" result="BackgroundImageFix"/>
<feGaussianBlur in="BackgroundImageFix" stdDeviation="25"/>
<feComposite in2="SourceAlpha" operator="in" result="effect1_backgroundBlur_71_6395"/>
<feBlend mode="normal" in="SourceGraphic" in2="effect1_backgroundBlur_71_6395" result="shape"/>
</filter>
</defs>
</svg>
