<svg width="17" height="20" viewBox="0 0 17 20" fill="none" xmlns="http://www.w3.org/2000/svg">
<path d="M4.49316 3.0835H5.62109C6.1875 3.0835 6.69043 3.16162 7.12988 3.31787C7.57422 3.47412 8.00146 3.75488 8.41162 4.16016L12.5645 8.31299C12.9648 8.71338 13.2285 9.14307 13.3555 9.60205C13.4873 10.061 13.5532 10.5615 13.5532 11.1035V15.2637H13.7803C14.1367 15.2637 14.4565 15.2148 14.7397 15.1172C15.0278 15.0195 15.272 14.873 15.4722 14.6777C15.6772 14.4775 15.8335 14.2261 15.9409 13.9233C16.0532 13.6206 16.1094 13.2666 16.1094 12.8613V2.79785C16.1094 2.00684 15.9067 1.40869 15.5015 1.00342C15.1011 0.593262 14.5103 0.388184 13.729 0.388184H6.86621C6.08496 0.388184 5.49414 0.59082 5.09375 0.996094C4.69336 1.40137 4.49316 1.99707 4.49316 2.7832V3.0835ZM8.07471 2.54883V2.3877C8.07471 2.27539 8.11377 2.17041 8.19189 2.07275C8.27002 1.97021 8.39453 1.91895 8.56543 1.91895H12.0371C12.2031 1.91895 12.3252 1.97021 12.4033 2.07275C12.4863 2.17041 12.5278 2.27539 12.5278 2.3877V2.54883C12.5278 2.6709 12.4839 2.77832 12.396 2.87109C12.313 2.96387 12.1934 3.01025 12.0371 3.01025H8.56543C8.4043 3.01025 8.28223 2.96387 8.19922 2.87109C8.11621 2.77832 8.07471 2.6709 8.07471 2.54883ZM0.867676 16.6187C0.867676 17.4146 1.06787 18.0127 1.46826 18.4131C1.86865 18.8184 2.46191 19.021 3.24805 19.021H10.1035C10.8896 19.021 11.4829 18.8184 11.8833 18.4131C12.2837 18.0078 12.4839 17.4097 12.4839 16.6187V10.9351H7.27637C6.80762 10.9351 6.4585 10.8203 6.229 10.5908C5.99951 10.3564 5.88477 10.0073 5.88477 9.54346V4.14551H3.24805C2.46191 4.14551 1.86865 4.35059 1.46826 4.76074C1.06787 5.16602 0.867676 5.76416 0.867676 6.55518V16.6187ZM7.34961 9.86572L12.3447 9.8584C12.3057 9.70703 12.2373 9.55566 12.1396 9.4043C12.042 9.24805 11.9102 9.08447 11.7441 8.91357L7.88428 4.99512C7.71826 4.82422 7.55957 4.68262 7.4082 4.57031C7.25684 4.45801 7.10303 4.37988 6.94678 4.33594V9.46289C6.94678 9.73145 7.08105 9.86572 7.34961 9.86572Z" fill="#007AFF"/>
</svg>
