<svg width="40" height="40" viewBox="0 0 40 40" fill="none" xmlns="http://www.w3.org/2000/svg">
<rect x="11.1938" y="11.4467" width="17.426" height="17.1062" rx="5.5" fill="black"/>
<path fill-rule="evenodd" clip-rule="evenodd" d="M10.809 0H29.191C35.1607 0 40 4.75052 40 10.6106V29.3894C40 35.2495 35.1607 40 29.191 40H10.809C4.83934 40 0 35.2495 0 29.3894V10.6106C0 4.75052 4.83934 0 10.809 0ZM29.1912 5.78784H10.8092C8.0957 5.78784 5.896 7.94717 5.896 10.6108V29.3896C5.896 32.0533 8.0957 34.2126 10.8092 34.2126H29.1912C31.9047 34.2126 34.1044 32.0533 34.1044 29.3896V10.6108C34.1044 7.94717 31.9047 5.78784 29.1912 5.78784Z" fill="black"/>
</svg>
