<svg width="124" height="124" viewBox="0 0 124 124" fill="none" xmlns="http://www.w3.org/2000/svg">
<g clip-path="url(#clip0_35_14756)">
<path d="M62.6462 109.22L48.7932 63.0521L89.8441 61.0994L62.6462 109.22Z" stroke="#70D4FE" stroke-width="0.484375" stroke-linecap="round" stroke-linejoin="round"/>
<path d="M62.6462 109.22L48.7932 63.0521L89.8441 61.0994L62.6462 109.22Z" fill="#70D4FE"/>
<path d="M62.6462 109.22L18.7089 54.3787L48.7932 63.0521L62.6462 109.22Z" stroke="#52C5FF" stroke-width="0.484375" stroke-linecap="round" stroke-linejoin="round"/>
<path d="M62.6462 109.22L18.7089 54.3787L48.7932 63.0521L62.6462 109.22Z" fill="#52C5FF"/>
<path d="M62.6462 109.22L89.8365 61.1068L109.923 50.0723L62.6462 109.22Z" stroke="#3DA2EE" stroke-width="0.484375" stroke-linecap="round" stroke-linejoin="round"/>
<path d="M62.6462 109.22L89.8365 61.1068L109.923 50.0723L62.6462 109.22Z" fill="#3DA2EE"/>
<path d="M68.3205 42.323L48.7932 63.051L89.8408 61.0996L68.3205 42.323Z" stroke="#56B1F5" stroke-width="0.484375" stroke-linecap="round" stroke-linejoin="round"/>
<path d="M68.3205 42.323L48.7932 63.051L89.8408 61.0996L68.3205 42.323Z" fill="#56B1F5"/>
<path d="M93.1531 36.9417L89.8408 61.0996L109.919 50.0672L93.1531 36.9417Z" stroke="#77C3FE" stroke-width="0.484375" stroke-linecap="round" stroke-linejoin="round"/>
<path d="M93.1531 36.9417L89.8408 61.0996L109.919 50.0672L93.1531 36.9417Z" fill="#77C3FE"/>
<path d="M27.8316 30.8237L21.7143 41.8091L18.711 54.3749L27.8316 30.8237Z" stroke="#3769C2" stroke-width="0.484375" stroke-linecap="round" stroke-linejoin="round"/>
<path d="M27.8316 30.8237L21.7143 41.8091L18.711 54.3749L27.8316 30.8237Z" fill="#3769C2"/>
<path d="M38.9096 39.5784L18.711 54.3749L48.7932 63.0511L38.9096 39.5784Z" stroke="#87D5FF" stroke-width="0.484375" stroke-linecap="round" stroke-linejoin="round"/>
<path d="M38.9096 39.5784L18.711 54.3749L48.7932 63.0511L38.9096 39.5784Z" fill="#87D5FF"/>
<path d="M18.711 54.3749L38.9096 39.5783L27.8316 30.8237L18.711 54.3749Z" fill="#6FC4F7"/>
<path d="M109.924 50.0673L93.1564 36.9421L95.3509 27.6189L109.924 50.0673Z" fill="#5AA6E6"/>
<path d="M48.7932 63.0511L38.9096 39.5784L68.3205 42.3231L48.7932 63.0511Z" fill="#A5D9FB"/>
<path d="M89.8408 61.0996L68.3205 42.3231L93.1531 36.9417L89.8408 61.0996Z" fill="#70BFFB"/>
<path d="M72.9711 21.2485L42.8583 22.7344L27.8274 30.8235L38.9207 39.5769L68.3136 42.3201L93.1563 36.9421L95.3509 27.619L72.9711 21.2485Z" fill="#C7E9FF"/>
<path d="M72.9711 21.2485L42.8583 22.7344L27.8274 30.8235L38.9207 39.5769L68.3136 42.3201L93.1563 36.9421L95.3509 27.619L72.9711 21.2485Z" stroke="#C7EAFF" stroke-width="0.450618" stroke-linecap="round" stroke-linejoin="round"/>
<path d="M71.4394 41.6435C73.7765 41.1375 77.1394 40.4094 80.5235 39.6769" stroke="white" stroke-width="0.683467" stroke-linecap="round" stroke-linejoin="round"/>
<g opacity="0.38">
<path d="M102.603 59.1397L109.815 49.9753L101.929 38.2469L101.928 38.2532L95.1836 27.4816L84.7697 24.6921L73.1961 21.3892L58.5123 22.0656L43.0592 22.6946L27.9966 30.6693L21.6591 41.6079L18.8017 54.3206L62.6982 109.312L102.593 59.1283L102.603 59.1397ZM96.6904 58.7766L62.7752 101.428L25.4631 54.6851L27.8949 43.8775L33.2729 34.5881L46.0876 27.8076L59.2112 27.2673L71.7042 26.6882L81.5341 29.5058L90.3861 31.8732L96.1245 41.034V41.0211L102.828 50.9925L96.6904 58.7766Z" fill="#0068FF"/>
</g>
<g opacity="0.6">
<g opacity="0.649927">
<path d="M42.7424 22.689L29.0291 31.9491L31.3814 33.7864L31.4166 33.8409L45.4524 22.623L44.2453 22.6665L42.7424 22.689Z" fill="white"/>
</g>
</g>
<path d="M102.588 59.1404L109.799 49.976L101.913 38.2476L101.912 38.2539L95.1678 27.4824L84.754 24.6928L73.1803 21.3899L58.4965 22.0663L43.0435 22.6953L27.9809 30.67L21.6433 41.6087L18.786 54.3213L62.6825 109.313L102.577 59.129L102.588 59.1404Z" stroke="#0058AF" stroke-width="1.9375" stroke-linecap="round" stroke-linejoin="round"/>
<g opacity="0.6">
<path d="M28.0227 57.2942L48.9991 63.8176L89.6737 61.7951L97.1619 57.4278L89.4351 60.5581L49.1817 61.7591L28.0227 57.2942Z" fill="white"/>
</g>
<path d="M93.0654 45.0408C91.5973 48.1359 87.2194 61.4633 73.2004 54.5313C75.9273 55.8411 87.0205 59.3527 79.7739 73.7959C81.3878 70.9351 84.5742 59.3101 98.6681 65.9147C96.4232 64.8152 84.6266 62.2837 93.0654 45.0408Z" fill="white"/>
<path d="M89.5215 52.8073C89.5215 52.8073 89.6996 52.4466 89.9952 51.8484M93.1989 63.1335C93.1989 63.1335 93.778 63.4196 94.7382 63.894M83.3057 66.7547C83.3057 66.7547 83.1275 67.1154 82.8319 67.7136M78.7636 56.8117C78.7636 56.8117 78.2084 56.5493 77.2874 56.1137" stroke="#C2E8FF" stroke-width="0.276786" stroke-linecap="round" stroke-linejoin="round"/>
<path d="M62.6462 109.22L43.4725 62.4391L84.9852 62.0151L62.6462 109.22Z" stroke="#77D8FE" stroke-width="0.484375" stroke-linecap="round" stroke-linejoin="round"/>
<path d="M62.6462 109.22L43.4725 62.4391L84.9852 62.0151L62.6462 109.22Z" fill="#77D8FE"/>
<path d="M62.6462 109.22L16.9606 52.7212L43.4725 62.4392L62.6462 109.22Z" stroke="#51C3FD" stroke-width="0.484375" stroke-linecap="round" stroke-linejoin="round"/>
<path d="M62.6462 109.22L16.9606 52.7212L43.4725 62.4392L62.6462 109.22Z" fill="#51C3FD"/>
<path d="M62.6462 109.22L84.9775 62.0153L109.196 51.7979L62.6462 109.22Z" stroke="#35A8F9" stroke-width="0.484375" stroke-linecap="round" stroke-linejoin="round"/>
<path d="M62.6462 109.22L84.9775 62.0153L109.196 51.7979L62.6462 109.22Z" fill="#35A8F9"/>
<path d="M64.1336 42.4524L43.4727 62.4381L84.9821 62.0111L64.1336 42.4524Z" stroke="#51AEF4" stroke-width="0.484375" stroke-linecap="round" stroke-linejoin="round"/>
<path d="M64.1336 42.4524L43.4727 62.4381L84.9821 62.0111L64.1336 42.4524Z" fill="#51AEF4"/>
<path d="M90.871 38.0229L84.9821 62.011L109.186 51.7964L90.871 38.0229Z" stroke="#7AC6FE" stroke-width="0.484375" stroke-linecap="round" stroke-linejoin="round"/>
<path d="M90.871 38.0229L84.9821 62.011L109.186 51.7964L90.871 38.0229Z" fill="#7AC6FE"/>
<path d="M35.995 38.6448L16.9627 52.717L43.4727 62.4381L35.995 38.6448Z" stroke="#7AD1FF" stroke-width="0.484375" stroke-linecap="round" stroke-linejoin="round"/>
<path d="M35.995 38.6448L16.9627 52.717L43.4727 62.4381L35.995 38.6448Z" fill="#7AD1FF"/>
<path d="M16.9627 52.7168L35.995 38.6446L28.3835 29.5449L16.9627 52.7168Z" fill="#67BAF0"/>
<path d="M109.191 51.7966L90.8741 38.0237L96.6604 28.8479L109.191 51.7966Z" fill="#63AFED"/>
<path d="M43.4727 62.4381L35.995 38.6448L64.1336 42.4524L43.4727 62.4381Z" fill="#C3E9FE"/>
<path d="M84.9821 62.011L64.1336 42.4523L90.8711 38.0229L84.9821 62.011Z" fill="#6CBDFA"/>
<path d="M76.9053 21.6995L46.4328 22.0666L28.3794 29.5447L36.0065 38.6438L64.128 42.449L90.8741 38.0237L96.6603 28.8481L76.9053 21.6995Z" fill="#C7E9FF"/>
<path d="M76.9053 21.6995L46.4328 22.0666L28.3794 29.5447L36.0065 38.6438L64.128 42.449L90.8741 38.0237L96.6603 28.8481L76.9053 21.6995Z" stroke="#C7EAFF" stroke-width="0.481459" stroke-linecap="round" stroke-linejoin="round"/>
<path d="M64.128 42.4492C64.128 42.4492 69.0239 41.6391 74.6266 40.7121" stroke="white" stroke-width="1.93935" stroke-linecap="round" stroke-linejoin="round"/>
<g opacity="0.38">
<path d="M103.035 59.4736L109.189 51.7432L102.907 40.5522L102.904 40.5541L96.574 28.6204L87.977 25.6652L77.2331 21.717L62.8176 21.9309L46.5036 22.0084L28.4815 29.4438L23.1967 39.9242L16.9248 52.6446L62.6982 109.312L103.025 59.4622L103.035 59.4736ZM97.0637 59.0597H97.0508L62.7752 101.428L23.8678 53.2569L29.1942 42.4493L33.6847 33.546L49.0083 27.2157L62.8782 27.1515L75.1268 26.9713L84.2616 30.3292L91.5696 32.8383L96.9479 42.9896V42.9767L102.287 52.4979L97.0637 59.0597Z" fill="#0068FF"/>
</g>
<g opacity="0.6">
<g opacity="0.6">
<path d="M30.5787 28.5015L28.0893 29.6104L28.3831 30.2367L28.4182 30.2912L30.5187 28.5717L30.5831 28.5698L30.5787 28.5015Z" fill="white"/>
</g>
</g>
<path d="M103.019 59.4743L109.173 51.7439L102.891 40.5529L102.888 40.5549L96.5582 28.6211L87.9613 25.6659L77.2174 21.7178L62.8019 21.9316L46.4879 22.0091L28.4657 29.4445L23.181 39.9249L16.909 52.6454L62.6825 109.313L103.009 59.4629L103.019 59.4743Z" stroke="#0058AF" stroke-width="1.9375" stroke-linecap="round" stroke-linejoin="round"/>
<g opacity="0.6">
<path d="M26.3358 56.4089L43.5123 63.3833L84.7839 63.0501L98.001 56.9081L84.5206 61.3804L43.8869 61.6421L26.3358 56.4089Z" fill="white"/>
</g>
<path d="M97.5062 47.3754C81.7946 59.7231 81.6408 61.7468 70.4833 47.8957C81.3192 61.8236 80.1653 60.9647 65.2097 72.7924C81.0739 62.0481 78.6844 57.5219 90.9158 73.108C82.0503 61.5308 79.1734 61.8428 97.5062 47.3754Z" fill="white"/>
<path d="M87.0884 55.558C87.0884 55.558 92.0463 51.7885 95.3017 49.3133M85.7794 66.441C85.7794 66.441 91.8304 74.3997 95.8036 79.6255M75.309 65.2746C75.309 65.2746 70.3512 69.0441 67.0957 71.5192M75.6732 54.3493C75.6732 54.3493 69.7892 46.8813 65.9258 41.9775" stroke="#C2E8FF" stroke-width="0.74818" stroke-linecap="round" stroke-linejoin="round"/>
<path d="M88.2396 54.8349C91.2018 58.731 90.4448 64.2907 86.5487 67.2529C82.6527 70.2151 77.093 69.4581 74.1307 65.562C71.1685 61.666 71.9256 56.1063 75.8216 53.1441C79.7177 50.1819 85.2774 50.9389 88.2396 54.8349Z" stroke="white" stroke-width="0.726562"/>
</g>
<defs>
<clipPath id="clip0_35_14756">
<rect width="124" height="124" fill="white"/>
</clipPath>
</defs>
</svg>
