<svg width="12" height="12" viewBox="0 0 12 12" fill="none" xmlns="http://www.w3.org/2000/svg">
<g clip-path="url(#clip0_117_6581)">
<path fill-rule="evenodd" clip-rule="evenodd" d="M6.46049 0.407986C6.18966 0.197338 5.81041 0.197338 5.53958 0.407986L1.03958 3.90799C0.712619 4.16229 0.653718 4.6335 0.90802 4.96046C1.16232 5.28742 1.63353 5.34632 1.96049 5.09201L6.00003 1.95015L10.0396 5.09201C10.3665 5.34632 10.8377 5.28742 11.092 4.96046C11.3464 4.6335 11.2874 4.16229 10.9605 3.90799L6.46049 0.407986ZM1.03958 8.09201L5.53958 11.592C5.81041 11.8027 6.18966 11.8027 6.46049 11.592L10.9605 8.09201C11.2875 7.83771 11.3464 7.3665 11.092 7.03954C10.8377 6.71258 10.3665 6.65368 10.0396 6.90799L6.00004 10.0499L1.96049 6.90799C1.63353 6.65368 1.16232 6.71258 0.908021 7.03954C0.653719 7.3665 0.71262 7.83771 1.03958 8.09201Z" fill="#007AFF"/>
</g>
<defs>
<clipPath id="clip0_117_6581">
<rect width="12" height="12" fill="white"/>
</clipPath>
</defs>
</svg>
